<?xml version="1.0" encoding="utf-8"?>
<!-- Generator: Adobe Illustrator 24.0.0, SVG Export Plug-In . SVG Version: 6.00 Build 0)  -->
<svg version="1.1" id="Capa_1" xmlns="http://www.w3.org/2000/svg" xmlns:xlink="http://www.w3.org/1999/xlink" x="0px" y="0px"
	 viewBox="0 0 309 141" style="enable-background:new 0 0 309 141;" xml:space="preserve">
<style type="text/css">
	.st0{fill:#53AFC8;}
	.st1{fill:#22416E;}
	.st2{fill:#CDCCCC;}
</style>
<g>
	<path class="st0" d="M85.63,32.31c0.29-0.43,0.71-0.63,1.3-0.63h6.16V21.16h-7.79c-3.87,0-6.79,1.04-8.69,3.09
		c-1.88,2.03-2.84,5.1-2.84,9.11v5.25h-4.61v9.88h4.61v34.98h11.35V48.49h7.97v-9.88h-7.97v-4.29
		C85.12,33.49,85.29,32.81,85.63,32.31z"/>
	<path class="st1" d="M66.57,41.34c-1.19-1.13-2.58-2-4.15-2.58c-1.61-0.6-3.43-0.9-5.4-0.9c-2.57,0-4.95,0.77-7.09,2.29
		c-1.11,0.79-2.12,1.75-3.01,2.88V37.9H35.13v45.53h11.79v-26.8c0-2.48,0.64-4.42,1.9-5.79c1.25-1.35,3.06-2.04,5.38-2.04
		c1.2,0,2.27,0.18,3.17,0.52c0.82,0.32,1.53,0.78,2.11,1.36l0.69,0.7l6.94-9.55L66.57,41.34z"/>
	<g>
		<path class="st1" d="M124.14,23.73l-11.39,14.13c-3.08,0.1-5.94,0.67-8.51,1.69c-2.8,1.12-5.11,2.7-6.86,4.69l-0.56,0.64l7.6,6.4
			l0.52-0.38c1.2-0.87,2.58-1.56,4.08-2.06c1.55-0.51,3.15-0.77,4.75-0.77c2.45,0,4.35,0.62,5.66,1.84c1.3,1.21,1.95,2.95,1.95,5.19
			v1.19h-10.64c-5.18,0-9.14,1.14-11.78,3.4c-2.66,2.28-4.01,5.71-4.01,10.21c0,4.71,1.33,8.3,3.96,10.64
			c2.61,2.33,6.54,3.51,11.7,3.51c2.04,0,3.95-0.24,5.68-0.72c1.76-0.48,3.28-1.22,4.54-2.2c0.19-0.15,0.37-0.3,0.55-0.46v2.75H132
			V54.74c0-3.52-0.73-6.58-2.17-9.09c-1.4-2.45-3.44-4.36-6.06-5.69l8.51-9.38L124.14,23.73z M121.39,70.96
			c0,1.21-0.64,2.09-1.94,2.67c-1.46,0.66-3.77,0.99-6.85,0.99c-2.46,0-4.3-0.41-5.47-1.21c-1.11-0.76-1.64-1.91-1.64-3.51
			c0-1.52,0.42-2.66,1.26-3.36c0.87-0.73,2.23-1.1,4.05-1.1h10.6V70.96z"/>
		<path class="st1" d="M149.71,51.15c1.57-1.56,3.85-2.35,6.76-2.35c1.58,0,3.12,0.31,4.58,0.92c1.4,0.59,2.65,1.43,3.7,2.51
			l0.57,0.58l7.71-7.24l-0.45-0.59c-1.12-1.49-2.53-2.78-4.18-3.82c-1.69-1.07-3.62-1.89-5.73-2.45c-2.11-0.56-4.37-0.84-6.75-0.84
			c-4.15,0-7.76,0.79-10.73,2.35c-2.99,1.57-5.31,3.89-6.88,6.9c-1.56,2.98-2.34,6.61-2.34,10.79v5.93c0,4.23,0.79,7.91,2.34,10.91
			c1.57,3.04,3.88,5.38,6.88,6.96c2.97,1.57,6.58,2.37,10.73,2.37c2.34,0,4.59-0.28,6.7-0.82c2.11-0.55,4.04-1.36,5.73-2.41
			c1.65-1.03,3.07-2.29,4.22-3.76l0.45-0.58l-7.72-7.72l-0.58,0.65c-1.03,1.15-2.26,2.06-3.66,2.69c-1.45,0.66-2.99,0.99-4.6,0.99
			c-2.94,0-5.22-0.8-6.78-2.39c-1.56-1.59-2.35-3.91-2.35-6.91v-5.93C147.35,54.98,148.14,52.71,149.71,51.15z"/>
		<rect x="176.5" y="37.9" class="st1" width="11.33" height="45.69"/>
		<path class="st1" d="M207.33,72.77c-0.8,0-1.38-0.21-1.78-0.65l0,0c-0.41-0.44-0.62-1.12-0.62-2.01V21.17h-11.37V71.5
			c0,3.83,1,6.85,2.97,8.98c1.98,2.15,4.79,3.24,8.32,3.24h6.13V72.77H207.33z"/>
	</g>
	<g>
		<g>
			<g>
				<path class="st1" d="M270.17,70.68h1.15l0.44,1.72l0.44-1.72h1.15v2.82h-0.72v-2.15l-0.55,2.15h-0.65l-0.55-2.15v2.15h-0.72
					V70.68z"/>
				<path class="st1" d="M273.91,73.5v-2.82h1.45c0.27,0,0.48,0.02,0.62,0.07c0.14,0.05,0.26,0.13,0.34,0.26
					c0.09,0.13,0.13,0.28,0.13,0.46c0,0.16-0.03,0.29-0.1,0.41c-0.07,0.11-0.16,0.21-0.28,0.28c-0.07,0.04-0.18,0.08-0.31,0.11
					c0.1,0.03,0.18,0.07,0.23,0.1c0.03,0.02,0.08,0.07,0.14,0.15c0.06,0.08,0.1,0.13,0.12,0.18l0.42,0.82h-0.99l-0.47-0.86
					c-0.06-0.11-0.11-0.18-0.16-0.22c-0.06-0.04-0.13-0.07-0.21-0.07h-0.08v1.15H273.91z M274.79,71.82h0.37
					c0.04,0,0.12-0.01,0.23-0.04c0.06-0.01,0.1-0.04,0.14-0.09c0.04-0.05,0.05-0.1,0.05-0.16c0-0.09-0.03-0.16-0.09-0.21
					c-0.06-0.05-0.17-0.07-0.32-0.07h-0.38V71.82z"/>
			</g>
		</g>
		<path class="st1" d="M273.43,67.17c-2.71,0-4.92,2.21-4.92,4.92c0,2.71,2.21,4.92,4.92,4.92c2.71,0,4.92-2.21,4.92-4.92
			C278.34,69.38,276.14,67.17,273.43,67.17z M273.43,76.17c-2.25,0-4.08-1.83-4.08-4.08s1.83-4.08,4.08-4.08
			c2.25,0,4.08,1.83,4.08,4.08S275.67,76.17,273.43,76.17z"/>
	</g>
	<path class="st0" d="M255.95,40.79H231.3h-0.78c-0.42,0-0.83,0.05-1.22,0.14c-2.39,0.55-4.17,2.7-4.17,5.25v25.43
		c0,2.97,2.42,5.39,5.4,5.39h25.43c2.48,0,4.57-1.68,5.2-3.95c0.13-0.46,0.2-0.94,0.2-1.44v-0.54V46.18
		C261.34,43.21,258.92,40.79,255.95,40.79z"/>
	<g>
		<path class="st1" d="M271.97,34.11c-0.28-0.28-0.64-0.46-1.01-0.58c-0.98-0.33-1.98-0.38-3.01-0.31
			c-1.78,0.12-3.39,0.67-4.81,1.77c-1.45,1.12-2.76,2.4-3.99,3.76c-4.45,4.87-6.26,7.66-6.99,8.8c-3.53,5.49-6.96,14.64-7.68,15.24
			c-0.11,0.09-6.27-8.32-6.44-8.59c0,0-3.21,1.73-5.57,3.14c0,0,0,0.01,0,0.01c0.24,0.31,0.39,0.49,0.69,0.88
			c2.16,2.71,4.22,5.51,6.08,8.42c0.03,0.05,0.06,0.1,0.1,0.15c1.04,1.65,2.81,2.7,4.75,2.79c2.12,0.11,4.13-1.06,5.02-2.99
			c0.16-0.35,0.33-0.69,0.5-1.04c3.02-6.05,6.6-11.76,10.56-17.25c1.78-2.46,3.7-4.83,5.76-7.06c1.74-1.89,3.58-3.67,5.68-5.16
			c0.24-0.17,0.42-0.39,0.54-0.64C272.39,35.01,272.32,34.46,271.97,34.11z"/>
	</g>
	<ellipse class="st2" cx="243.17" cy="82.98" rx="20.55" ry="0.99"/>
	<g>
		<path class="st1" d="M16.5,107.14c-0.42-0.31-1.03-0.55-1.79-0.73l-1.54-0.35c-1.02-0.23-1.67-0.43-1.95-0.58
			c-0.39-0.21-0.57-0.55-0.57-1.01c0-0.44,0.17-0.81,0.52-1.15c0.35-0.33,0.94-0.5,1.76-0.5c1.02,0,1.75,0.26,2.16,0.79
			c0.22,0.29,0.37,0.71,0.44,1.26l0.02,0.17h1.76v-0.19c0-1.28-0.43-2.23-1.29-2.83c-0.83-0.58-1.86-0.87-3.05-0.87
			c-1.3,0-2.32,0.34-3.03,1c-0.72,0.67-1.09,1.53-1.09,2.57c0,0.98,0.38,1.72,1.13,2.22c0.43,0.28,1.12,0.53,2.13,0.75l1.49,0.34
			c0.78,0.18,1.36,0.39,1.72,0.62c0.32,0.22,0.48,0.59,0.48,1.12c0,0.71-0.39,1.2-1.2,1.48c-0.44,0.15-0.93,0.23-1.46,0.23
			c-1.17,0-2-0.34-2.45-1.01c-0.24-0.36-0.38-0.84-0.41-1.42l-0.01-0.18H8.48l0,0.19c-0.02,1.24,0.39,2.24,1.2,2.97
			c0.81,0.73,1.93,1.1,3.34,1.1c1.2,0,2.27-0.27,3.18-0.81c0.94-0.56,1.42-1.49,1.42-2.78C17.63,108.49,17.25,107.69,16.5,107.14z"
			/>
		<path class="st1" d="M24.22,101.12c-1.91,0-3.38,0.71-4.36,2.12c-0.76,1.09-1.14,2.41-1.14,3.93c0,1.68,0.45,3.1,1.34,4.21
			c1,1.16,2.39,1.74,4.13,1.74c1.87,0,3.32-0.67,4.34-1.99c0.86-1.12,1.29-2.53,1.29-4.21c0-1.55-0.38-2.85-1.13-3.85
			C27.71,101.78,26.21,101.12,24.22,101.12z M24.37,111.41c-1.31,0-2.27-0.4-2.84-1.18c-0.59-0.8-0.89-1.8-0.89-2.97
			c0-1.46,0.35-2.58,1.03-3.32c0.68-0.74,1.57-1.11,2.64-1.11c1.12,0,1.98,0.36,2.63,1.12c0.64,0.75,0.97,1.76,0.97,3
			c0,1.18-0.29,2.24-0.85,3.14C26.5,110.97,25.62,111.41,24.37,111.41z"/>
		<polygon class="st1" points="33.23,101.42 31.36,101.42 31.36,112.8 38.8,112.8 38.8,111.11 33.23,111.11 		"/>
		<path class="st1" d="M47.28,108.41c0,0.76-0.12,1.37-0.34,1.8c-0.42,0.8-1.21,1.19-2.4,1.19c-0.99,0-1.67-0.36-2.08-1.1
			c-0.28-0.5-0.42-1.14-0.42-1.9v-6.99h-1.89v6.37c0,1.38,0.19,2.45,0.57,3.21c0.7,1.39,2.02,2.1,3.95,2.1
			c1.93,0,3.26-0.71,3.96-2.1c0.38-0.75,0.57-1.83,0.57-3.21v-6.37h-1.89V108.41z"/>
		<path class="st1" d="M59.06,108.53c-0.14,0.69-0.36,1.26-0.65,1.68c-0.54,0.79-1.31,1.18-2.35,1.18c-1.14,0-1.97-0.37-2.54-1.12
			c-0.57-0.76-0.86-1.78-0.86-3.02c0-1.52,0.32-2.65,0.95-3.37c0.63-0.72,1.44-1.08,2.48-1.08c0.84,0,1.49,0.19,1.95,0.58
			c0.46,0.39,0.77,0.92,0.92,1.58l0.03,0.15h1.81l-0.02-0.21c-0.09-0.98-0.54-1.86-1.34-2.62c-0.8-0.77-1.94-1.15-3.37-1.15
			c-1.68,0-3.03,0.59-3.99,1.76c-0.88,1.07-1.33,2.45-1.33,4.11c0,2.18,0.6,3.82,1.78,4.88c0.9,0.8,2.03,1.21,3.35,1.21
			c1.53,0,2.77-0.5,3.67-1.48c0.75-0.81,1.2-1.83,1.34-3.02l0.02-0.21H59.1L59.06,108.53z"/>
		<rect x="62.81" y="101.42" class="st1" width="1.89" height="11.38"/>
		<path class="st1" d="M71.82,101.12c-1.91,0-3.38,0.71-4.36,2.12c-0.76,1.09-1.14,2.41-1.14,3.93c0,1.68,0.45,3.1,1.34,4.21
			c1,1.16,2.39,1.74,4.13,1.74c1.87,0,3.32-0.67,4.34-1.99c0.86-1.12,1.29-2.53,1.29-4.21c0-1.55-0.38-2.85-1.13-3.85
			C75.32,101.78,73.82,101.12,71.82,101.12z M71.97,111.41c-1.31,0-2.27-0.4-2.84-1.18c-0.59-0.8-0.89-1.8-0.89-2.97
			c0-1.46,0.35-2.58,1.03-3.32c0.68-0.74,1.57-1.11,2.64-1.11c1.12,0,1.98,0.36,2.63,1.12c0.64,0.75,0.97,1.76,0.97,3
			c0,1.18-0.29,2.24-0.85,3.14C74.1,110.97,73.23,111.41,71.97,111.41z"/>
		<polygon class="st1" points="86.27,109.85 81.02,101.42 78.96,101.42 78.96,112.8 80.77,112.8 80.77,104.37 86.1,112.8 
			88.07,112.8 88.07,101.42 86.27,101.42 		"/>
		<polygon class="st1" points="92.16,107.76 98.23,107.76 98.23,106.11 92.16,106.11 92.16,103.15 98.72,103.15 98.72,101.42 
			90.33,101.42 90.33,112.8 98.84,112.8 98.84,111.11 92.16,111.11 		"/>
		<path class="st1" d="M108.15,107.14c-0.42-0.31-1.03-0.55-1.79-0.73l-1.54-0.35c-1.02-0.23-1.67-0.43-1.95-0.58
			c-0.39-0.21-0.57-0.55-0.57-1.01c0-0.44,0.17-0.81,0.52-1.15c0.35-0.33,0.94-0.5,1.76-0.5c1.02,0,1.75,0.26,2.16,0.79
			c0.22,0.29,0.37,0.71,0.44,1.26l0.02,0.17h1.76v-0.19c0-1.28-0.43-2.23-1.29-2.83c-0.83-0.58-1.86-0.87-3.05-0.87
			c-1.3,0-2.32,0.34-3.03,1c-0.72,0.67-1.09,1.53-1.09,2.57c0,0.98,0.38,1.72,1.13,2.22c0.43,0.28,1.12,0.53,2.13,0.75l1.49,0.34
			c0.78,0.18,1.36,0.39,1.72,0.62c0.32,0.22,0.48,0.59,0.48,1.12c0,0.71-0.39,1.2-1.2,1.48c-0.44,0.15-0.93,0.23-1.46,0.23
			c-1.17,0-2-0.34-2.45-1.01c-0.24-0.36-0.38-0.84-0.41-1.42l-0.01-0.18h-1.77l0,0.19c-0.02,1.24,0.39,2.24,1.2,2.97
			c0.81,0.73,1.93,1.1,3.34,1.1c1.2,0,2.27-0.27,3.18-0.81c0.94-0.56,1.42-1.49,1.42-2.78C109.28,108.49,108.9,107.69,108.15,107.14
			z"/>
		<polygon class="st1" points="117.32,107.76 123.39,107.76 123.39,106.11 117.32,106.11 117.32,103.15 123.89,103.15 
			123.89,101.42 115.49,101.42 115.49,112.8 124,112.8 124,111.11 117.32,111.11 		"/>
		<polygon class="st1" points="133.03,109.85 127.78,101.42 125.72,101.42 125.72,112.8 127.53,112.8 127.53,104.37 132.86,112.8 
			134.83,112.8 134.83,101.42 133.03,101.42 		"/>
		<polygon class="st1" points="140.16,103.12 143.87,103.12 143.87,112.8 145.76,112.8 145.76,103.12 149.47,103.12 149.47,101.42 
			140.16,101.42 		"/>
		<polygon class="st1" points="152.58,107.76 158.65,107.76 158.65,106.11 152.58,106.11 152.58,103.15 159.14,103.15 
			159.14,101.42 150.74,101.42 150.74,112.8 159.25,112.8 159.25,111.11 152.58,111.11 		"/>
		<path class="st1" d="M168.79,108.53c-0.14,0.7-0.36,1.26-0.65,1.68c-0.54,0.79-1.31,1.18-2.35,1.18c-1.14,0-1.97-0.37-2.54-1.12
			c-0.57-0.76-0.86-1.78-0.86-3.02c0-1.52,0.32-2.65,0.95-3.37c0.63-0.72,1.44-1.08,2.48-1.08c0.84,0,1.49,0.19,1.95,0.58
			c0.46,0.38,0.77,0.92,0.92,1.58l0.03,0.15h1.81l-0.02-0.21c-0.09-0.98-0.54-1.86-1.34-2.62c-0.8-0.77-1.94-1.15-3.37-1.15
			c-1.68,0-3.03,0.59-3.99,1.76c-0.88,1.07-1.33,2.45-1.33,4.11c0,2.18,0.6,3.82,1.78,4.88c0.9,0.8,2.03,1.21,3.35,1.21
			c1.53,0,2.77-0.5,3.67-1.48c0.75-0.81,1.2-1.83,1.34-3.02l0.02-0.21h-1.82L168.79,108.53z"/>
		<polygon class="st1" points="179.51,109.85 174.25,101.42 172.2,101.42 172.2,112.8 174,112.8 174,104.37 179.34,112.8 
			181.31,112.8 181.31,101.42 179.51,101.42 		"/>
		<path class="st1" d="M188.36,101.12c-1.91,0-3.38,0.71-4.36,2.12c-0.76,1.09-1.14,2.41-1.14,3.93c0,1.68,0.45,3.1,1.34,4.21
			c1,1.16,2.39,1.74,4.13,1.74c1.87,0,3.32-0.67,4.34-1.99c0.86-1.12,1.29-2.53,1.29-4.21c0-1.55-0.38-2.85-1.13-3.85
			C191.85,101.78,190.35,101.12,188.36,101.12z M188.5,111.41c-1.31,0-2.27-0.4-2.84-1.18c-0.59-0.8-0.89-1.8-0.89-2.97
			c0-1.46,0.35-2.58,1.03-3.32c0.68-0.74,1.57-1.11,2.64-1.11c1.12,0,1.98,0.36,2.63,1.12c0.64,0.75,0.97,1.76,0.97,3
			c0,1.18-0.29,2.24-0.85,3.14C190.64,110.97,189.76,111.41,188.5,111.41z"/>
		<polygon class="st1" points="197.37,101.42 195.49,101.42 195.49,112.8 202.93,112.8 202.93,111.11 197.37,111.11 		"/>
		<path class="st1" d="M209.11,101.12c-1.91,0-3.38,0.71-4.36,2.12c-0.76,1.09-1.14,2.41-1.14,3.93c0,1.68,0.45,3.1,1.34,4.21
			c1,1.16,2.39,1.74,4.13,1.74c1.87,0,3.32-0.67,4.34-1.99c0.86-1.12,1.29-2.53,1.29-4.21c0-1.55-0.38-2.85-1.13-3.85
			C212.6,101.78,211.1,101.12,209.11,101.12z M209.26,111.41c-1.31,0-2.27-0.4-2.84-1.18c-0.59-0.8-0.89-1.8-0.89-2.97
			c0-1.46,0.35-2.58,1.03-3.32c0.68-0.74,1.57-1.11,2.64-1.11c1.12,0,1.98,0.36,2.63,1.12c0.64,0.75,0.97,1.76,0.97,3
			c0,1.18-0.29,2.24-0.85,3.14C211.39,110.97,210.51,111.41,209.26,111.41z"/>
		<path class="st1" d="M221.03,108.15h3.44c-0.04,1.13-0.36,1.95-0.93,2.46c-0.61,0.54-1.4,0.82-2.34,0.82
			c-1.24,0-2.11-0.38-2.65-1.15c-0.55-0.78-0.83-1.82-0.83-3.08c0-1.46,0.33-2.56,0.99-3.28c0.66-0.73,1.46-1.08,2.43-1.08
			c0.82,0,1.5,0.17,2.03,0.52c0.52,0.34,0.87,0.89,1.03,1.64l0.03,0.15h1.85l-0.04-0.22c-0.25-1.49-0.96-2.55-2.11-3.15
			c-0.78-0.41-1.71-0.62-2.77-0.62c-1.56,0-2.84,0.54-3.82,1.62c-1.03,1.12-1.55,2.64-1.55,4.52c0,1.89,0.53,3.4,1.6,4.5
			c0.97,0.87,2.14,1.31,3.49,1.31c1.04,0,1.91-0.19,2.58-0.58c0.35-0.19,0.72-0.5,1.15-0.93l0.31,1.22h1.3v-6.27h-5.21V108.15z"/>
		<polygon class="st1" points="227.8,100.97 229.26,100.97 231.61,98.42 229.41,98.42 		"/>
		<rect x="228.66" y="101.42" class="st1" width="1.89" height="11.38"/>
		<path class="st1" d="M235.99,101.42l-4.28,11.38h1.94l1.19-3.29h4.08l1.12,3.29h2.04l-4.13-11.38H235.99z M238.3,107.91h-2.9
			l1.49-4.09L238.3,107.91z"/>
		<path class="st1" d="M251.39,101.42h-4.64v11.38h4.63c1.96,0,3.36-0.88,4.16-2.61c0.45-0.96,0.68-2.06,0.68-3.25
			c0-1.55-0.39-2.84-1.16-3.84C254.19,101.99,252.96,101.42,251.39,101.42z M248.63,103.09h2.45c1.15,0,1.95,0.34,2.46,1.05
			c0.51,0.72,0.78,1.75,0.78,3.06c0,0.34-0.04,0.72-0.11,1.12c-0.12,0.67-0.33,1.22-0.61,1.64c-0.34,0.52-0.79,0.87-1.32,1.05
			c-0.3,0.1-0.7,0.15-1.18,0.15h-2.47V103.09z"/>
		<rect x="258.24" y="101.42" class="st1" width="1.89" height="11.38"/>
		<path class="st1" d="M267.1,108.15h3.44c-0.04,1.13-0.36,1.95-0.93,2.46c-0.61,0.54-1.4,0.82-2.34,0.82
			c-1.24,0-2.11-0.38-2.65-1.15c-0.55-0.78-0.83-1.82-0.83-3.08c0-1.46,0.33-2.56,0.99-3.28c0.66-0.73,1.46-1.08,2.43-1.08
			c0.82,0,1.5,0.17,2.03,0.52c0.52,0.34,0.87,0.89,1.03,1.64l0.03,0.15h1.85l-0.04-0.22c-0.25-1.49-0.96-2.55-2.11-3.15
			c-0.78-0.41-1.71-0.62-2.77-0.62c-1.56,0-2.84,0.54-3.82,1.62c-1.03,1.12-1.55,2.64-1.55,4.52c0,1.89,0.53,3.4,1.6,4.5
			c0.97,0.87,2.14,1.31,3.49,1.31c1.04,0,1.91-0.19,2.58-0.58c0.35-0.19,0.72-0.5,1.15-0.93l0.31,1.22h1.3v-6.27h-5.21V108.15z"/>
		<rect x="274.72" y="101.42" class="st1" width="1.89" height="11.38"/>
		<polygon class="st1" points="287.18,101.42 277.88,101.42 277.88,103.12 281.58,103.12 281.58,112.8 283.48,112.8 283.48,103.12 
			287.18,103.12 		"/>
		<path class="st1" d="M290.44,101.42l-4.28,11.38h1.94l1.19-3.29h4.08l1.12,3.29h2.04l-4.13-11.38H290.44z M292.75,107.91h-2.9
			l1.49-4.09L292.75,107.91z"/>
		<polygon class="st1" points="299.43,111.11 299.43,101.42 297.56,101.42 297.56,112.8 305,112.8 305,111.11 		"/>
	</g>
</g>
</svg>
