<svg width="18" height="18" viewBox="0 0 18 18" fill="none" xmlns="http://www.w3.org/2000/svg">
<path d="M16.5 7.58902e-06H4.81032C4.61326 -0.000621974 4.41805 0.0379245 4.23602 0.113407C4.054 0.188889 3.88879 0.299801 3.75001 0.439695L0.439695 3.75001C0.299801 3.88879 0.188889 4.054 0.113407 4.23602C0.0379245 4.41805 -0.000621974 4.61326 7.58902e-06 4.81032V16.5C7.58902e-06 16.8978 0.158043 17.2794 0.439347 17.5607C0.720652 17.842 1.10218 18 1.50001 18H16.5C16.8978 18 17.2794 17.842 17.5607 17.5607C17.842 17.2794 18 16.8978 18 16.5V1.50001C18 1.10218 17.842 0.720652 17.5607 0.439347C17.2794 0.158043 16.8978 7.58902e-06 16.5 7.58902e-06ZM5.25001 1.50001H12.75V4.50001H5.25001V1.50001ZM16.5 16.5H1.50001V4.81032L3.75001 2.56032V4.50001C3.75001 4.89783 3.90804 5.27936 4.18935 5.56067C4.47065 5.84197 4.85218 6.00001 5.25001 6.00001H12.75C13.1478 6.00001 13.5294 5.84197 13.8107 5.56067C14.092 5.27936 14.25 4.89783 14.25 4.50001V1.50001H16.5V16.5ZM9.00001 7.50001C8.25833 7.50001 7.5333 7.71994 6.91662 8.132C6.29994 8.54405 5.81929 9.12972 5.53546 9.81494C5.25163 10.5002 5.17737 11.2542 5.32206 11.9816C5.46676 12.709 5.82391 13.3772 6.34836 13.9017C6.8728 14.4261 7.54099 14.7833 8.26842 14.928C8.99585 15.0726 9.74985 14.9984 10.4351 14.7146C11.1203 14.4307 11.706 13.9501 12.118 13.3334C12.5301 12.7167 12.75 11.9917 12.75 11.25C12.75 10.2554 12.3549 9.30162 11.6517 8.59836C10.9484 7.8951 9.99457 7.50001 9.00001 7.50001ZM9.00001 13.5C8.555 13.5 8.11999 13.368 7.74997 13.1208C7.37996 12.8736 7.09158 12.5222 6.92128 12.111C6.75098 11.6999 6.70642 11.2475 6.79324 10.8111C6.88006 10.3746 7.09435 9.97369 7.40902 9.65902C7.72369 9.34435 8.1246 9.13006 8.56105 9.04324C8.99751 8.95642 9.44991 9.00098 9.86105 9.17128C10.2722 9.34158 10.6236 9.62996 10.8708 9.99998C11.118 10.37 11.25 10.805 11.25 11.25C11.25 11.8467 11.013 12.419 10.591 12.841C10.169 13.263 9.59674 13.5 9.00001 13.5Z" fill="#CCFBF1"/>
</svg>
