<svg width="15" height="14" viewBox="0 0 15 14" fill="none" xmlns="http://www.w3.org/2000/svg">
<path d="M7.33333 3.5V12.8333M7.33333 3.5C7.33333 2.79276 7.0594 2.11448 6.57181 1.61438C6.08422 1.11428 5.4229 0.833332 4.73333 0.833332H1.48333C1.31094 0.833332 1.14561 0.90357 1.02371 1.02859C0.901814 1.15362 0.833332 1.32319 0.833332 1.5V10.1667C0.833332 10.3435 0.901814 10.513 1.02371 10.6381C1.14561 10.7631 1.31094 10.8333 1.48333 10.8333H5.38333C5.9005 10.8333 6.39649 11.044 6.76219 11.4191C7.12789 11.7942 7.33333 12.3029 7.33333 12.8333M7.33333 3.5C7.33333 2.79276 7.60726 2.11448 8.09485 1.61438C8.58245 1.11428 9.24377 0.833332 9.93333 0.833332H13.1833C13.3557 0.833332 13.5211 0.90357 13.643 1.02859C13.7649 1.15362 13.8333 1.32319 13.8333 1.5V10.1667C13.8333 10.3435 13.7649 10.513 13.643 10.6381C13.5211 10.7631 13.3557 10.8333 13.1833 10.8333H9.28333C8.76616 10.8333 8.27017 11.044 7.90447 11.4191C7.53878 11.7942 7.33333 12.3029 7.33333 12.8333" stroke="#314158" stroke-width="1.66667" stroke-linecap="round" stroke-linejoin="round"/>
</svg>
