<svg width="15" height="14" viewBox="0 0 15 14" fill="none" xmlns="http://www.w3.org/2000/svg">
<path d="M9.66666 4.33333L11.2 5.86666C11.3246 5.98881 11.4922 6.05723 11.6667 6.05723C11.8412 6.05723 12.0087 5.98881 12.1333 5.86666L13.5333 4.46666C13.6555 4.34204 13.7239 4.17449 13.7239 3.99999C13.7239 3.82549 13.6555 3.65794 13.5333 3.53333L12 1.99999M13.3333 0.666664L6.93332 7.06666M7.99999 9.66667C7.99999 11.6917 6.35837 13.3333 4.33332 13.3333C2.30828 13.3333 0.666656 11.6917 0.666656 9.66667C0.666656 7.64162 2.30828 6 4.33332 6C6.35837 6 7.99999 7.64162 7.99999 9.66667Z" stroke="#45556C" stroke-width="1.33333" stroke-linecap="round" stroke-linejoin="round"/>
</svg>
