<svg width="15" height="16" viewBox="0 0 15 16" fill="none" xmlns="http://www.w3.org/2000/svg">
<path d="M5.64309 2.319C5.68308 1.91251 5.87847 1.53502 6.1911 1.26029C6.50373 0.985567 6.91113 0.833332 7.33371 0.833332C7.75629 0.833332 8.16368 0.985567 8.47631 1.26029C8.78894 1.53502 8.98433 1.91251 9.02432 2.319C9.04835 2.58159 9.13751 2.83471 9.28423 3.05696C9.43096 3.2792 9.63094 3.46402 9.86724 3.59576C10.1035 3.7275 10.3692 3.8023 10.6418 3.81381C10.9143 3.82532 11.1858 3.77322 11.4331 3.6619C11.8171 3.49345 12.2522 3.46907 12.6538 3.59352C13.0553 3.71797 13.3946 3.98234 13.6056 4.33518C13.8165 4.68803 13.8841 5.10409 13.7951 5.5024C13.7061 5.90072 13.4669 6.25278 13.124 6.49007C12.9008 6.64144 12.7185 6.84253 12.5927 7.07634C12.4669 7.31015 12.4012 7.56981 12.4012 7.83333C12.4012 8.09686 12.4669 8.35651 12.5927 8.59032C12.7185 8.82413 12.9008 9.02523 13.124 9.17659C13.4669 9.41389 13.7061 9.76595 13.7951 10.1643C13.8841 10.5626 13.8165 10.9786 13.6056 11.3315C13.3946 11.6843 13.0553 11.9487 12.6538 12.0731C12.2522 12.1976 11.8171 12.1732 11.4331 12.0048C11.1858 11.8934 10.9143 11.8413 10.6418 11.8529C10.3692 11.8644 10.1035 11.9392 9.86724 12.0709C9.63094 12.2026 9.43096 12.3875 9.28423 12.6097C9.13751 12.8319 9.04835 13.0851 9.02432 13.3477C8.98433 13.7542 8.78894 14.1316 8.47631 14.4064C8.16368 14.6811 7.75629 14.8333 7.33371 14.8333C6.91113 14.8333 6.50373 14.6811 6.1911 14.4064C5.87847 14.1316 5.68308 13.7542 5.64309 13.3477C5.6191 13.085 5.52995 12.8318 5.38318 12.6094C5.23641 12.3871 5.03635 12.2022 4.79995 12.0705C4.56355 11.9387 4.29776 11.864 4.02511 11.8525C3.75246 11.8411 3.48096 11.8933 3.23363 12.0048C2.84963 12.1732 2.41451 12.1976 2.01293 12.0731C1.61136 11.9487 1.27208 11.6843 1.06111 11.3315C0.850147 10.9786 0.782595 10.5626 0.871604 10.1643C0.960613 9.76595 1.19981 9.41389 1.54265 9.17659C1.76591 9.02523 1.94815 8.82413 2.07396 8.59032C2.19977 8.35651 2.26546 8.09686 2.26546 7.83333C2.26546 7.56981 2.19977 7.31015 2.07396 7.07634C1.94815 6.84253 1.76591 6.64144 1.54265 6.49007C1.2003 6.25266 0.961516 5.90073 0.872723 5.50269C0.783929 5.10465 0.851464 4.68892 1.0622 4.33631C1.27294 3.9837 1.61183 3.71939 2.013 3.59475C2.41417 3.47011 2.84898 3.49405 3.2329 3.6619C3.48021 3.77322 3.75162 3.82532 4.02418 3.81381C4.29674 3.8023 4.56241 3.7275 4.79872 3.59576C5.03502 3.46402 5.235 3.2792 5.38173 3.05696C5.52845 2.83471 5.61761 2.58159 5.64164 2.319M9.51057 7.83369C9.51057 8.99557 8.5358 9.93746 7.33335 9.93746C6.1309 9.93746 5.15612 8.99557 5.15612 7.83369C5.15612 6.67181 6.1309 5.72992 7.33335 5.72992C8.5358 5.72992 9.51057 6.67181 9.51057 7.83369Z" stroke="#314158" stroke-width="1.66667" stroke-linecap="round" stroke-linejoin="round"/>
</svg>
