<svg width="12" height="15" viewBox="0 0 12 15" fill="none" xmlns="http://www.w3.org/2000/svg">
<path d="M0.666672 12.3333V2.33333C0.666672 1.8913 0.842266 1.46738 1.15483 1.15482C1.46739 0.842259 1.89131 0.666664 2.33334 0.666664H10.6667C10.8435 0.666664 11.0131 0.736902 11.1381 0.861926C11.2631 0.98695 11.3333 1.15652 11.3333 1.33333V13.3333C11.3333 13.5101 11.2631 13.6797 11.1381 13.8047C11.0131 13.9298 10.8435 14 10.6667 14H2.33334C1.89131 14 1.46739 13.8244 1.15483 13.5118C0.842266 13.1993 0.666672 12.7754 0.666672 12.3333ZM0.666672 12.3333C0.666672 11.8913 0.842266 11.4674 1.15483 11.1548C1.46739 10.8423 1.89131 10.6667 2.33334 10.6667H11.3333M3.33336 6.66666H8.66669M3.33336 3.99999H7.33336" stroke="#45556C" stroke-width="1.33333" stroke-linecap="round" stroke-linejoin="round"/>
</svg>
