<svg width="15" height="14" viewBox="0 0 15 14" fill="none" xmlns="http://www.w3.org/2000/svg">
<path d="M5.99997 6.66666H8.66664M5.99997 4H8.66664M8.66664 12.6667V10.6667C8.66664 10.313 8.52616 9.9739 8.27611 9.72385C8.02606 9.4738 7.68692 9.33333 7.3333 9.33333C6.97968 9.33333 6.64054 9.4738 6.39049 9.72385C6.14045 9.9739 5.99997 10.313 5.99997 10.6667V12.6667M3.33332 5.33333H1.99999C1.64637 5.33333 1.30723 5.4738 1.05718 5.72385C0.807132 5.9739 0.666656 6.31304 0.666656 6.66666V11.3333C0.666656 11.687 0.807132 12.0261 1.05718 12.2761C1.30723 12.5262 1.64637 12.6667 1.99999 12.6667H12.6667C13.0203 12.6667 13.3594 12.5262 13.6095 12.2761C13.8595 12.0261 14 11.687 14 11.3333V4.66666C14 4.31304 13.8595 3.9739 13.6095 3.72385C13.3594 3.4738 13.0203 3.33333 12.6667 3.33333H11.3333M3.33331 12.6667V2C3.33331 1.64638 3.47379 1.30724 3.72384 1.05719C3.97389 0.80714 4.31302 0.666664 4.66665 0.666664H9.99998C10.3536 0.666664 10.6927 0.80714 10.9428 1.05719C11.1928 1.30724 11.3333 1.64638 11.3333 2V12.6667" stroke="#45556C" stroke-width="1.33333" stroke-linecap="round" stroke-linejoin="round"/>
</svg>
