<svg width="13" height="13" viewBox="0 0 13 13" fill="none" xmlns="http://www.w3.org/2000/svg">
<path d="M12.9263 12.209C11.9753 10.4993 10.5099 9.2734 8.79966 8.69226C9.64561 8.16856 10.3029 7.37055 10.6705 6.42081C11.0381 5.47106 11.0958 4.42207 10.8346 3.43495C10.5734 2.44783 10.0079 1.57714 9.22485 0.956607C8.4418 0.336072 7.48451 0 6.5 0C5.51549 0 4.55821 0.336072 3.77515 0.956607C2.99209 1.57714 2.42655 2.44783 2.1654 3.43495C1.90424 4.42207 1.9619 5.47106 2.32952 6.42081C2.69714 7.37055 3.35439 8.16856 4.20034 8.69226C2.49012 9.27275 1.02466 10.4987 0.0737016 12.209C0.0388283 12.2681 0.0156971 12.3339 0.00567277 12.4025C-0.00435158 12.4711 -0.00106602 12.541 0.0153356 12.6083C0.0317372 12.6755 0.0609227 12.7386 0.10117 12.794C0.141417 12.8493 0.191911 12.8957 0.249672 12.9304C0.307434 12.9651 0.371292 12.9874 0.43748 12.996C0.503669 13.0046 0.570846 12.9993 0.635048 12.9805C0.699251 12.9617 0.759178 12.9297 0.811295 12.8864C0.863411 12.8431 0.906661 12.7894 0.938492 12.7284C2.11486 10.6142 4.1941 9.35197 6.5 9.35197C8.8059 9.35197 10.8851 10.6142 12.0615 12.7284C12.0933 12.7894 12.1366 12.8431 12.1887 12.8864C12.2408 12.9297 12.3007 12.9617 12.365 12.9805C12.4292 12.9993 12.4963 13.0046 12.5625 12.996C12.6287 12.9874 12.6926 12.9651 12.7503 12.9304C12.8081 12.8957 12.8586 12.8493 12.8988 12.794C12.9391 12.7386 12.9683 12.6755 12.9847 12.6083C13.0011 12.541 13.0044 12.4711 12.9943 12.4025C12.9843 12.3339 12.9612 12.2681 12.9263 12.209ZM3.00337 4.67687C3.00337 3.9577 3.20845 3.25468 3.59266 2.65671C3.97688 2.05874 4.52297 1.59268 5.1619 1.31747C5.80082 1.04225 6.50388 0.970243 7.18216 1.11055C7.86044 1.25085 8.48348 1.59716 8.97249 2.10569C9.4615 2.61422 9.79452 3.26213 9.92944 3.96748C10.0644 4.67283 9.99511 5.40395 9.73046 6.06838C9.46581 6.7328 9.01764 7.3007 8.44262 7.70025C7.8676 8.0998 7.19157 8.31306 6.5 8.31306C5.57294 8.31203 4.68414 7.9286 4.02861 7.2469C3.37308 6.56521 3.00437 5.64093 3.00337 4.67687Z" fill="#45556C"/>
</svg>
