<svg width="15" height="14" viewBox="0 0 15 14" fill="none" xmlns="http://www.w3.org/2000/svg">
<path d="M9.99999 12.6667V11.3333C9.99999 10.6261 9.71904 9.94781 9.21894 9.44771C8.71884 8.94762 8.04057 8.66666 7.33332 8.66666H3.33332C2.62608 8.66666 1.9478 8.94762 1.44771 9.44771C0.947608 9.94781 0.666656 10.6261 0.666656 11.3333V12.6667M9.99997 0.751991C10.5718 0.900238 11.0782 1.23417 11.4398 1.70137C11.8013 2.16857 11.9974 2.74258 11.9974 3.33332C11.9974 3.92407 11.8013 4.49808 11.4398 4.96528C11.0782 5.43248 10.5718 5.76641 9.99997 5.91466M14 12.6667V11.3333C13.9995 10.7425 13.8029 10.1685 13.4409 9.70154C13.0789 9.23457 12.5721 8.90105 12 8.75333M7.99999 3.33333C7.99999 4.80609 6.80608 6 5.33332 6C3.86056 6 2.66666 4.80609 2.66666 3.33333C2.66666 1.86057 3.86056 0.666664 5.33332 0.666664C6.80608 0.666664 7.99999 1.86057 7.99999 3.33333Z" stroke="#45556C" stroke-width="1.33333" stroke-linecap="round" stroke-linejoin="round"/>
</svg>
