<svg width="15" height="19" viewBox="0 0 15 19" fill="none" xmlns="http://www.w3.org/2000/svg">
<path d="M10.8333 5.83334H5.83334C5.39131 5.83334 4.96739 6.00893 4.65482 6.32149C4.34226 6.63405 4.16667 7.05797 4.16667 7.5C4.16667 7.94203 4.34226 8.36595 4.65482 8.67851C4.96739 8.99107 5.39131 9.16667 5.83334 9.16667H9.16667C9.6087 9.16667 10.0326 9.34226 10.3452 9.65483C10.6577 9.96739 10.8333 10.3913 10.8333 10.8333C10.8333 11.2754 10.6577 11.6993 10.3452 12.0118C10.0326 12.3244 9.6087 12.5 9.16667 12.5H4.16667M7.5 13.75V4.58334M0.833333 0.833336V17.5L2.5 16.6667L4.16667 17.5L5.83333 16.6667L7.5 17.5L9.16667 16.6667L10.8333 17.5L12.5 16.6667L14.1667 17.5V0.833336L12.5 1.66667L10.8333 0.833336L9.16667 1.66667L7.5 0.833336L5.83333 1.66667L4.16667 0.833336L2.5 1.66667L0.833333 0.833336Z" stroke="#314158" stroke-width="1.66667" stroke-linecap="round" stroke-linejoin="round"/>
</svg>
