<svg width="22" height="16" viewBox="0 0 22 16" fill="none" xmlns="http://www.w3.org/2000/svg">
<path d="M20.4286 0H1.57143C1.15466 0 0.754961 0.168571 0.460261 0.468629C0.165561 0.768687 0 1.17565 0 1.6V14.4C0 14.8243 0.165561 15.2313 0.460261 15.5314C0.754961 15.8314 1.15466 16 1.57143 16H20.4286C20.8453 16 21.245 15.8314 21.5397 15.5314C21.8344 15.2313 22 14.8243 22 14.4V1.6C22 1.17565 21.8344 0.768687 21.5397 0.468629C21.245 0.168571 20.8453 0 20.4286 0ZM20.4286 1.6V4H1.57143V1.6H20.4286ZM20.4286 14.4H1.57143V5.6H20.4286V14.4ZM18.8571 12C18.8571 12.2122 18.7744 12.4157 18.627 12.5657C18.4797 12.7157 18.2798 12.8 18.0714 12.8H14.9286C14.7202 12.8 14.5203 12.7157 14.373 12.5657C14.2256 12.4157 14.1429 12.2122 14.1429 12C14.1429 11.7878 14.2256 11.5843 14.373 11.4343C14.5203 11.2843 14.7202 11.2 14.9286 11.2H18.0714C18.2798 11.2 18.4797 11.2843 18.627 11.4343C18.7744 11.5843 18.8571 11.7878 18.8571 12ZM12.5714 12C12.5714 12.2122 12.4886 12.4157 12.3413 12.5657C12.1939 12.7157 11.9941 12.8 11.7857 12.8H10.2143C10.0059 12.8 9.80605 12.7157 9.6587 12.5657C9.51135 12.4157 9.42857 12.2122 9.42857 12C9.42857 11.7878 9.51135 11.5843 9.6587 11.4343C9.80605 11.2843 10.0059 11.2 10.2143 11.2H11.7857C11.9941 11.2 12.1939 11.2843 12.3413 11.4343C12.4886 11.5843 12.5714 11.7878 12.5714 12Z" fill="#818CF8"/>
</svg>
