<svg width="14" height="14" viewBox="0 0 14 14" fill="none" xmlns="http://www.w3.org/2000/svg">
<path d="M11.3333 3.33333V1.33333C11.3333 1.15652 11.2631 0.986951 11.1381 0.861926C11.013 0.736902 10.8435 0.666664 10.6667 0.666664H1.99999C1.64637 0.666664 1.30723 0.80714 1.05718 1.05719C0.807132 1.30724 0.666656 1.64638 0.666656 2M0.666656 2C0.666656 2.35362 0.807132 2.69276 1.05718 2.94281C1.30723 3.19286 1.64637 3.33333 1.99999 3.33333H12C12.1768 3.33333 12.3464 3.40357 12.4714 3.52859C12.5964 3.65362 12.6667 3.82319 12.6667 4V6.66666M0.666656 2V11.3333C0.666656 11.687 0.807132 12.0261 1.05718 12.2761C1.30723 12.5262 1.64637 12.6667 1.99999 12.6667H12C12.1768 12.6667 12.3464 12.5964 12.4714 12.4714C12.5964 12.3464 12.6667 12.1768 12.6667 12V9.33333M12.6667 6.66666H10.6667C10.313 6.66666 9.9739 6.80714 9.72385 7.05719C9.4738 7.30724 9.33332 7.64638 9.33332 8C9.33332 8.35362 9.4738 8.69276 9.72385 8.94281C9.9739 9.19285 10.313 9.33333 10.6667 9.33333H12.6667M12.6667 6.66666C12.8435 6.66666 13.013 6.7369 13.1381 6.86193C13.2631 6.98695 13.3333 7.15652 13.3333 7.33333V8.66666C13.3333 8.84348 13.2631 9.01304 13.1381 9.13807C13.013 9.26309 12.8435 9.33333 12.6667 9.33333" stroke="#45556C" stroke-width="1.33333" stroke-linecap="round" stroke-linejoin="round"/>
</svg>
