<svg width="14" height="14" viewBox="0 0 14 14" fill="none" xmlns="http://www.w3.org/2000/svg">
<path d="M4.66667 0.666664H1.33334C0.965149 0.666664 0.666672 0.965141 0.666672 1.33333V4.66666C0.666672 5.03485 0.965149 5.33333 1.33334 5.33333H4.66667C5.03486 5.33333 5.33334 5.03485 5.33334 4.66666V1.33333C5.33334 0.965141 5.03486 0.666664 4.66667 0.666664Z" stroke="#45556C" stroke-width="1.33333" stroke-linecap="round" stroke-linejoin="round"/>
<path d="M12 0.666664H8.66668C8.29849 0.666664 8.00002 0.965141 8.00002 1.33333V4.66666C8.00002 5.03485 8.29849 5.33333 8.66668 5.33333H12C12.3682 5.33333 12.6667 5.03485 12.6667 4.66666V1.33333C12.6667 0.965141 12.3682 0.666664 12 0.666664Z" stroke="#45556C" stroke-width="1.33333" stroke-linecap="round" stroke-linejoin="round"/>
<path d="M12 7.99999H8.66668C8.29849 7.99999 8.00002 8.29847 8.00002 8.66666V12C8.00002 12.3682 8.29849 12.6667 8.66668 12.6667H12C12.3682 12.6667 12.6667 12.3682 12.6667 12V8.66666C12.6667 8.29847 12.3682 7.99999 12 7.99999Z" stroke="#45556C" stroke-width="1.33333" stroke-linecap="round" stroke-linejoin="round"/>
<path d="M4.66667 7.99999H1.33334C0.965149 7.99999 0.666672 8.29847 0.666672 8.66666V12C0.666672 12.3682 0.965149 12.6667 1.33334 12.6667H4.66667C5.03486 12.6667 5.33334 12.3682 5.33334 12V8.66666C5.33334 8.29847 5.03486 7.99999 4.66667 7.99999Z" stroke="#45556C" stroke-width="1.33333" stroke-linecap="round" stroke-linejoin="round"/>
</svg>
