<svg width="21" height="16" viewBox="0 0 21 16" fill="none" xmlns="http://www.w3.org/2000/svg">
<path d="M6.125 0.888889C6.125 0.653141 6.21719 0.427049 6.38128 0.26035C6.54538 0.0936507 6.76794 0 7 0H20.125C20.3571 0 20.5796 0.0936507 20.7437 0.26035C20.9078 0.427049 21 0.653141 21 0.888889C21 1.12464 20.9078 1.35073 20.7437 1.51743C20.5796 1.68413 20.3571 1.77778 20.125 1.77778H7C6.76794 1.77778 6.54538 1.68413 6.38128 1.51743C6.21719 1.35073 6.125 1.12464 6.125 0.888889ZM20.125 7.11111H7C6.76794 7.11111 6.54538 7.20476 6.38128 7.37146C6.21719 7.53816 6.125 7.76425 6.125 8C6.125 8.23575 6.21719 8.46184 6.38128 8.62854C6.54538 8.79524 6.76794 8.88889 7 8.88889H20.125C20.3571 8.88889 20.5796 8.79524 20.7437 8.62854C20.9078 8.46184 21 8.23575 21 8C21 7.76425 20.9078 7.53816 20.7437 7.37146C20.5796 7.20476 20.3571 7.11111 20.125 7.11111ZM20.125 14.2222H7C6.76794 14.2222 6.54538 14.3159 6.38128 14.4826C6.21719 14.6493 6.125 14.8754 6.125 15.1111C6.125 15.3469 6.21719 15.573 6.38128 15.7397C6.54538 15.9064 6.76794 16 7 16H20.125C20.3571 16 20.5796 15.9064 20.7437 15.7397C20.9078 15.573 21 15.3469 21 15.1111C21 14.8754 20.9078 14.6493 20.7437 14.4826C20.5796 14.3159 20.3571 14.2222 20.125 14.2222ZM2.625 0H0.875C0.642936 0 0.420376 0.0936507 0.256282 0.26035C0.0921874 0.427049 0 0.653141 0 0.888889C0 1.12464 0.0921874 1.35073 0.256282 1.51743C0.420376 1.68413 0.642936 1.77778 0.875 1.77778H2.625C2.85706 1.77778 3.07962 1.68413 3.24372 1.51743C3.40781 1.35073 3.5 1.12464 3.5 0.888889C3.5 0.653141 3.40781 0.427049 3.24372 0.26035C3.07962 0.0936507 2.85706 0 2.625 0ZM2.625 7.11111H0.875C0.642936 7.11111 0.420376 7.20476 0.256282 7.37146C0.0921874 7.53816 0 7.76425 0 8C0 8.23575 0.0921874 8.46184 0.256282 8.62854C0.420376 8.79524 0.642936 8.88889 0.875 8.88889H2.625C2.85706 8.88889 3.07962 8.79524 3.24372 8.62854C3.40781 8.46184 3.5 8.23575 3.5 8C3.5 7.76425 3.40781 7.53816 3.24372 7.37146C3.07962 7.20476 2.85706 7.11111 2.625 7.11111ZM2.625 14.2222H0.875C0.642936 14.2222 0.420376 14.3159 0.256282 14.4826C0.0921874 14.6493 0 14.8754 0 15.1111C0 15.3469 0.0921874 15.573 0.256282 15.7397C0.420376 15.9064 0.642936 16 0.875 16H2.625C2.85706 16 3.07962 15.9064 3.24372 15.7397C3.40781 15.573 3.5 15.3469 3.5 15.1111C3.5 14.8754 3.40781 14.6493 3.24372 14.4826C3.07962 14.3159 2.85706 14.2222 2.625 14.2222Z" fill="#818CF8"/>
</svg>
