<svg width="21" height="16" viewBox="0 0 21 16" fill="none" xmlns="http://www.w3.org/2000/svg">
<path d="M1.16667 8.38095C0.960387 8.38095 0.762556 8.30068 0.616695 8.1578C0.470833 8.01491 0.388889 7.82112 0.388889 7.61905C0.388889 7.41698 0.470833 7.22318 0.616695 7.0803C0.762556 6.93742 0.960387 6.85714 1.16667 6.85714H3.88889C4.09517 6.85714 4.293 6.77687 4.43886 6.63399C4.58472 6.4911 4.66667 6.29731 4.66667 6.09524C4.66667 5.89317 4.58472 5.69938 4.43886 5.55649C4.293 5.41361 4.09517 5.33333 3.88889 5.33333H2.33333C1.71449 5.33333 1.121 5.09252 0.683418 4.66386C0.245833 4.23521 0 3.65383 0 3.04762C0 2.44141 0.245833 1.86003 0.683418 1.43138C1.121 1.00272 1.71449 0.761905 2.33333 0.761905C2.33333 0.559835 2.41528 0.366042 2.56114 0.223157C2.707 0.080272 2.90483 0 3.11111 0C3.31739 0 3.51522 0.080272 3.66108 0.223157C3.80694 0.366042 3.88889 0.559835 3.88889 0.761905H4.66667C4.87295 0.761905 5.07078 0.842177 5.21664 0.985062C5.3625 1.12795 5.44444 1.32174 5.44444 1.52381C5.44444 1.72588 5.3625 1.91967 5.21664 2.06256C5.07078 2.20544 4.87295 2.28571 4.66667 2.28571H2.33333C2.12705 2.28571 1.92922 2.36599 1.78336 2.50887C1.6375 2.65176 1.55556 2.84555 1.55556 3.04762C1.55556 3.24969 1.6375 3.44348 1.78336 3.58637C1.92922 3.72925 2.12705 3.80952 2.33333 3.80952H3.88889C4.50773 3.80952 5.10122 4.05034 5.53881 4.47899C5.97639 4.90765 6.22222 5.48903 6.22222 6.09524C6.22222 6.70145 5.97639 7.28283 5.53881 7.71148C5.10122 8.14014 4.50773 8.38095 3.88889 8.38095C3.88889 8.58302 3.80694 8.77682 3.66108 8.9197C3.51522 9.06259 3.31739 9.14286 3.11111 9.14286C2.90483 9.14286 2.707 9.06259 2.56114 8.9197C2.41528 8.77682 2.33333 8.58302 2.33333 8.38095H1.16667ZM21 1.52381V14.4762C21 14.8803 20.8361 15.2679 20.5444 15.5537C20.2527 15.8395 19.857 16 19.4444 16H2.33333C1.92077 16 1.52511 15.8395 1.23339 15.5537C0.941666 15.2679 0.777778 14.8803 0.777778 14.4762V10.6667C0.777778 10.4646 0.859722 10.2708 1.00558 10.1279C1.15145 9.98503 1.34928 9.90476 1.55556 9.90476C1.76184 9.90476 1.95967 9.98503 2.10553 10.1279C2.25139 10.2708 2.33333 10.4646 2.33333 10.6667V14.4762H14V11.4286H6.22222C6.01594 11.4286 5.81811 11.3483 5.67225 11.2054C5.52639 11.0625 5.44444 10.8687 5.44444 10.6667C5.44444 10.4646 5.52639 10.2708 5.67225 10.1279C5.81811 9.98503 6.01594 9.90476 6.22222 9.90476H14V6.85714H8.55556C8.34928 6.85714 8.15145 6.77687 8.00558 6.63399C7.85972 6.4911 7.77778 6.29731 7.77778 6.09524C7.77778 5.89317 7.85972 5.69938 8.00558 5.55649C8.15145 5.41361 8.34928 5.33333 8.55556 5.33333H19.4444V2.28571H7.77778C7.5715 2.28571 7.37367 2.20544 7.22781 2.06256C7.08194 1.91967 7 1.72588 7 1.52381C7 1.32174 7.08194 1.12795 7.22781 0.985062C7.37367 0.842177 7.5715 0.761905 7.77778 0.761905H20.2222C20.4285 0.761905 20.6263 0.842177 20.7722 0.985062C20.9181 1.12795 21 1.32174 21 1.52381ZM15.5556 9.90476H19.4444V6.85714H15.5556V9.90476ZM19.4444 14.4762V11.4286H15.5556V14.4762H19.4444Z" fill="white"/>
</svg>
