<svg width="14" height="12" viewBox="0 0 14 12" fill="none" xmlns="http://www.w3.org/2000/svg">
<path d="M9.85185 5H12.963C13.238 5 13.5018 4.89464 13.6963 4.70711C13.8907 4.51957 14 4.26522 14 4V1C14 0.734784 13.8907 0.48043 13.6963 0.292893C13.5018 0.105357 13.238 0 12.963 0H9.85185C9.57681 0 9.31304 0.105357 9.11856 0.292893C8.92407 0.48043 8.81481 0.734784 8.81481 1V2H7.77778C7.36522 2 6.96956 2.15804 6.67783 2.43934C6.38611 2.72064 6.22222 3.10218 6.22222 3.5V5.5H4.14815V5C4.14815 4.73478 4.03889 4.48043 3.84441 4.29289C3.64992 4.10536 3.38615 4 3.11111 4H1.03704C0.761998 4 0.498223 4.10536 0.303741 4.29289C0.109259 4.48043 0 4.73478 0 5V7C0 7.26522 0.109259 7.51957 0.303741 7.70711C0.498223 7.89464 0.761998 8 1.03704 8H3.11111C3.38615 8 3.64992 7.89464 3.84441 7.70711C4.03889 7.51957 4.14815 7.26522 4.14815 7V6.5H6.22222V8.5C6.22222 8.89782 6.38611 9.27936 6.67783 9.56066C6.96956 9.84196 7.36522 10 7.77778 10H8.81481V11C8.81481 11.2652 8.92407 11.5196 9.11856 11.7071C9.31304 11.8946 9.57681 12 9.85185 12H12.963C13.238 12 13.5018 11.8946 13.6963 11.7071C13.8907 11.5196 14 11.2652 14 11V8C14 7.73478 13.8907 7.48043 13.6963 7.29289C13.5018 7.10536 13.238 7 12.963 7H9.85185C9.57681 7 9.31304 7.10536 9.11856 7.29289C8.92407 7.48043 8.81481 7.73478 8.81481 8V9H7.77778C7.64026 9 7.50837 8.94732 7.41113 8.85355C7.31389 8.75979 7.25926 8.63261 7.25926 8.5V3.5C7.25926 3.36739 7.31389 3.24021 7.41113 3.14645C7.50837 3.05268 7.64026 3 7.77778 3H8.81481V4C8.81481 4.26522 8.92407 4.51957 9.11856 4.70711C9.31304 4.89464 9.57681 5 9.85185 5ZM3.11111 7H1.03704V5H3.11111V7ZM9.85185 8H12.963V11H9.85185V8ZM9.85185 1H12.963V4H9.85185V1Z" fill="#45556C"/>
</svg>
