<svg width="15" height="19" viewBox="0 0 15 19" fill="none" xmlns="http://www.w3.org/2000/svg">
<path d="M9.16667 0.833335H2.5C2.05798 0.833335 1.63405 1.00893 1.32149 1.32149C1.00893 1.63405 0.833336 2.05797 0.833336 2.5V15.8333C0.833336 16.2754 1.00893 16.6993 1.32149 17.0118C1.63405 17.3244 2.05798 17.5 2.5 17.5H12.5C12.942 17.5 13.366 17.3244 13.6785 17.0118C13.9911 16.6993 14.1667 16.2754 14.1667 15.8333V5.83333M9.16667 0.833335C9.43047 0.832907 9.69174 0.88467 9.93544 0.985642C10.1792 1.08661 10.4005 1.2348 10.5867 1.42167L13.5767 4.41167C13.764 4.59792 13.9126 4.81946 14.0139 5.06347C14.1152 5.30748 14.1671 5.56914 14.1667 5.83333M9.16667 0.833335L9.16668 5C9.16668 5.22101 9.25448 5.43297 9.41076 5.58925C9.56704 5.74553 9.779 5.83333 10 5.83333L14.1667 5.83333M5.00001 11.6667L6.66667 13.3333L10 9.99999" stroke="#314158" stroke-width="1.66667" stroke-linecap="round" stroke-linejoin="round"/>
</svg>
