<svg width="12" height="12" viewBox="0 0 12 12" fill="none" xmlns="http://www.w3.org/2000/svg">
<path d="M7.33334 9.33334H1.33334M7.33334 9.33334C7.33334 10.4379 8.22877 11.3333 9.33334 11.3333C10.4379 11.3333 11.3333 10.4379 11.3333 9.33334C11.3333 8.22877 10.4379 7.33334 9.33334 7.33334C8.22877 7.33334 7.33334 8.22877 7.33334 9.33334ZM10.6667 2.66666H4.66666M4.66666 2.66666C4.66666 3.77123 3.77123 4.66666 2.66666 4.66666C1.56209 4.66666 0.666656 3.77123 0.666656 2.66666C0.666656 1.56209 1.56209 0.666664 2.66666 0.666664C3.77123 0.666664 4.66666 1.56209 4.66666 2.66666Z" stroke="#45556C" stroke-width="1.33333" stroke-linecap="round" stroke-linejoin="round"/>
</svg>
