<svg width="15" height="19" viewBox="0 0 15 19" fill="none" xmlns="http://www.w3.org/2000/svg">
<path d="M9.16666 0.833335H2.49999C2.05797 0.833335 1.63404 1.00893 1.32148 1.32149C1.00892 1.63405 0.833328 2.05797 0.833328 2.5V15.8333C0.833328 16.2754 1.00892 16.6993 1.32148 17.0118C1.63404 17.3244 2.05797 17.5 2.49999 17.5H12.5C12.942 17.5 13.3659 17.3244 13.6785 17.0118C13.9911 16.6993 14.1667 16.2754 14.1667 15.8333V5.83333M9.16666 0.833335C9.43046 0.832907 9.69173 0.88467 9.93544 0.985642C10.1791 1.08661 10.4005 1.2348 10.5867 1.42167L13.5767 4.41167C13.764 4.59792 13.9126 4.81946 14.0139 5.06347C14.1152 5.30748 14.1671 5.56914 14.1667 5.83333M9.16666 0.833335L9.16667 5C9.16667 5.22101 9.25447 5.43297 9.41075 5.58925C9.56703 5.74553 9.77899 5.83333 10 5.83333L14.1667 5.83333M5.83334 6.66666H4.16667M10.8333 9.99999H4.16667M10.8333 13.3333H4.16667" stroke="#314158" stroke-width="1.66667" stroke-linecap="round" stroke-linejoin="round"/>
</svg>
